<svg width="155.445" height="92.5" viewBox="0 0 155.445 92.5" xmlns="http://www.w3.org/2000/svg"><g id="svgGroup" stroke-linecap="round" fill-rule="evenodd" font-size="9pt" stroke="#fffefd" stroke-width="0.25mm" fill="#fffefd" style="stroke:#fffefd;stroke-width:0.25mm;fill:#fffefd"><path d="M 90.945 43.6 L 90.945 34.7 A 89.749 89.749 0 0 0 90.906 32.102 A 107.143 107.143 0 0 0 90.845 30.45 A 14.922 14.922 0 0 0 90.191 26.641 A 13.886 13.886 0 0 0 90.045 26.2 Q 89.558 25.031 90.874 25.191 A 3.381 3.381 0 0 1 90.945 25.2 A 19.14 19.14 0 0 0 91.655 25.243 Q 92.77 25.294 94.723 25.299 A 172.858 172.858 0 0 0 95.195 25.3 Q 98.043 25.3 101.588 25.213 A 366.636 366.636 0 0 0 102.095 25.2 Q 105.945 25.1 109.645 24.95 A 159.847 159.847 0 0 0 112.266 24.823 Q 113.55 24.75 114.666 24.662 A 76.8 76.8 0 0 0 115.945 24.55 Q 118.32 24.322 118.86 24.135 A 0.724 0.724 0 0 0 118.945 24.1 Q 119.345 20.9 119.545 18.1 A 139.668 139.668 0 0 0 119.756 14.444 A 169.889 169.889 0 0 0 119.845 12.1 A 1.052 1.052 0 0 0 119.824 11.877 Q 119.754 11.556 119.456 11.508 A 0.702 0.702 0 0 0 119.345 11.5 Q 115.045 11.6 111.495 11.8 Q 107.945 12 103.545 12.2 Q 101.145 12.3 98.345 12.55 Q 95.545 12.8 93.145 13 A 7.882 7.882 0 0 1 92.919 13.017 Q 92.181 13.063 91.898 12.921 A 0.391 0.391 0 0 1 91.795 12.85 A 1.18 1.18 0 0 1 91.644 12.66 Q 91.483 12.413 91.345 12 L 90.245 8.1 Q 90.145 7.9 90.345 7.65 A 0.551 0.551 0 0 1 90.45 7.548 Q 90.619 7.425 90.845 7.5 A 5.204 5.204 0 0 0 91.178 7.534 Q 92.052 7.6 94.245 7.6 A 178.159 178.159 0 0 0 96.411 7.586 Q 97.372 7.574 98.431 7.553 A 329.773 329.773 0 0 0 100.645 7.5 A 321.085 321.085 0 0 0 107.312 7.248 A 354.358 354.358 0 0 0 108.295 7.2 Q 112.245 7 115.545 6.75 Q 118.265 6.544 119.966 6.236 A 17.564 17.564 0 0 0 120.645 6.1 A 3.012 3.012 0 0 1 120.883 6.016 Q 121.22 5.913 121.445 5.95 A 4.666 4.666 0 0 0 121.64 5.978 Q 121.727 5.989 121.803 5.995 A 2.029 2.029 0 0 0 121.945 6 Q 122.099 6.077 122.194 6.095 A 0.282 0.282 0 0 0 122.245 6.1 L 126.645 7.3 A 1.938 1.938 0 0 1 126.879 7.373 Q 127.359 7.56 127.272 7.918 A 0.611 0.611 0 0 1 127.245 8 Q 127.092 8.919 126.763 10.512 A 178.232 178.232 0 0 1 126.545 11.55 A 61.669 61.669 0 0 0 126.213 13.221 Q 126.061 14.044 125.956 14.767 A 30.257 30.257 0 0 0 125.845 15.6 L 124.145 28.4 A 1.341 1.341 0 0 1 124.05 28.783 Q 123.871 29.199 123.394 29.28 A 1.483 1.483 0 0 1 123.145 29.3 A 38.055 38.055 0 0 0 122.505 29.306 Q 121.408 29.325 119.495 29.4 Q 116.945 29.5 113.645 29.6 Q 110.345 29.7 107.045 29.9 Q 103.798 30.097 101.18 30.245 A 1138.774 1138.774 0 0 1 101.095 30.25 Q 98.544 30.394 97.337 30.492 A 43.836 43.836 0 0 0 97.245 30.5 L 97.245 43.1 A 4.478 4.478 0 0 0 97.266 43.546 Q 97.311 43.996 97.456 44.261 A 0.829 0.829 0 0 0 97.595 44.45 Q 97.945 44.8 98.445 44.9 Q 101.142 45.093 105.277 44.868 A 103.299 103.299 0 0 0 105.595 44.85 Q 109.945 44.6 114.945 44 Q 119.945 43.4 124.795 42.45 Q 129.645 41.5 133.545 40.2 A 2.815 2.815 0 0 1 133.747 40.141 Q 134.109 40.049 134.334 40.115 A 0.459 0.459 0 0 1 134.645 40.4 L 135.145 43.8 A 1.779 1.779 0 0 1 135.171 44 Q 135.229 44.885 134.263 45.258 A 2.706 2.706 0 0 1 134.145 45.3 A 36.447 36.447 0 0 1 132.014 45.982 Q 129.781 46.627 126.795 47.25 Q 122.245 48.2 116.895 49.05 Q 111.545 49.9 105.995 50.4 A 162.478 162.478 0 0 1 99.312 50.869 A 133.895 133.895 0 0 1 95.545 51 A 3.85 3.85 0 0 1 92.587 49.497 A 5.403 5.403 0 0 1 92.145 48.85 A 8.123 8.123 0 0 1 91.284 46.675 Q 91.041 45.687 90.972 44.531 A 15.749 15.749 0 0 1 90.945 43.6 Z M 68.245 55.8 L 63.145 56.1 Q 62.745 56.1 62.745 55.6 L 62.745 42.1 L 53.145 42.4 Q 50.745 42.5 47.845 42.7 Q 44.945 42.9 42.545 43.1 A 7.882 7.882 0 0 1 42.319 43.117 Q 41.581 43.163 41.298 43.021 A 0.391 0.391 0 0 1 41.195 42.95 A 1.18 1.18 0 0 1 41.044 42.76 Q 40.883 42.513 40.745 42.1 L 40.145 38.1 A 1.034 1.034 0 0 1 40.157 37.951 Q 40.18 37.797 40.245 37.6 Q 40.345 37.3 40.845 37.4 Q 41.994 37.553 43.846 37.648 A 86.156 86.156 0 0 0 45.045 37.7 A 98.052 98.052 0 0 0 47.625 37.76 Q 49.212 37.777 50.945 37.75 Q 54.145 37.7 57.295 37.6 A 133.964 133.964 0 0 0 59.538 37.511 Q 60.644 37.457 61.621 37.388 A 69.697 69.697 0 0 0 62.745 37.3 L 62.745 23.8 L 55.145 24.1 Q 52.745 24.2 49.845 24.4 Q 46.945 24.6 44.545 24.8 A 7.882 7.882 0 0 1 44.319 24.817 Q 43.581 24.863 43.298 24.721 A 0.391 0.391 0 0 1 43.195 24.65 A 1.18 1.18 0 0 1 43.044 24.46 Q 42.883 24.213 42.745 23.8 L 42.145 19.8 A 1.034 1.034 0 0 1 42.157 19.651 Q 42.18 19.497 42.245 19.3 Q 42.345 19 42.845 19.1 Q 44.745 19.3 48.345 19.4 Q 51.878 19.498 55.747 19.356 A 131.613 131.613 0 0 0 55.895 19.35 Q 58.611 19.247 60.83 19.12 A 162.911 162.911 0 0 0 62.745 19 L 62.745 12.2 Q 62.745 8.4 62.495 5.2 A 38.845 38.845 0 0 0 62.374 3.905 Q 62.168 2.065 61.847 1.232 A 2.663 2.663 0 0 0 61.745 1 Q 61.604 0.648 61.687 0.419 A 0.457 0.457 0 0 1 61.795 0.25 A 0.842 0.842 0 0 1 62.301 0.009 A 1.157 1.157 0 0 1 62.445 0 L 65.445 0 Q 67.345 0 68.945 0.1 Q 69.423 0.1 69.444 0.829 A 2.391 2.391 0 0 1 69.445 0.9 Q 69.145 4.6 69.095 7.35 A 280.981 280.981 0 0 0 69.061 9.919 Q 69.045 11.675 69.045 13.7 L 69.045 53.6 A 23.71 23.71 0 0 1 69.04 54.12 Q 69.017 55.156 68.895 55.4 A 0.612 0.612 0 0 1 68.673 55.641 Q 68.507 55.748 68.245 55.8 Z M 2.345 57.9 L 0.145 55.7 Q -0.208 55.347 0.297 54.838 A 2.498 2.498 0 0 1 0.445 54.7 A 63.338 63.338 0 0 0 9.137 49.653 A 74.835 74.835 0 0 0 12.495 47.2 Q 18.445 42.6 23.445 37 A 69.725 69.725 0 0 0 29.276 29.542 A 59.141 59.141 0 0 0 31.745 25.55 A 40.124 40.124 0 0 0 34.154 20.537 Q 35.279 17.677 35.754 14.961 A 24.375 24.375 0 0 0 35.845 14.4 A 2.673 2.673 0 0 0 35.868 14.235 Q 35.971 13.239 35.102 13.295 A 1.625 1.625 0 0 0 35.045 13.3 L 16.045 14.5 L 6.345 15.4 A 4.752 4.752 0 0 1 6.145 15.416 Q 5.394 15.459 5.102 15.207 A 0.537 0.537 0 0 1 5.045 15.15 A 2.757 2.757 0 0 1 4.711 14.657 A 3.515 3.515 0 0 1 4.545 14.3 A 0.451 0.451 0 0 1 4.494 14.239 Q 4.445 14.17 4.445 14.1 A 33.164 33.164 0 0 1 4.184 13.355 Q 4.079 13.043 3.994 12.766 A 14.734 14.734 0 0 1 3.845 12.25 Q 3.645 11.5 3.245 9.8 A 0.318 0.318 0 0 1 3.212 9.656 Q 3.212 9.547 3.278 9.416 A 1.086 1.086 0 0 1 3.345 9.3 Q 3.544 9.002 4.038 9.098 A 1.543 1.543 0 0 1 4.045 9.1 A 85.987 85.987 0 0 0 9.884 9.432 Q 13.888 9.528 18.295 9.3 Q 26.045 8.9 32.745 8.2 A 672.329 672.329 0 0 1 33.843 8.002 Q 34.419 7.898 35.061 7.783 A 1121.592 1121.592 0 0 1 35.245 7.75 A 192.206 192.206 0 0 1 35.575 7.691 Q 36.561 7.517 36.722 7.502 A 0.269 0.269 0 0 1 36.745 7.5 Q 37.245 7.3 37.845 7.5 A 8.474 8.474 0 0 1 38.394 7.659 Q 39.052 7.872 39.945 8.25 Q 41.245 8.8 42.345 9.25 Q 43.444 9.699 43.645 9.899 Q 44.563 10.359 44.386 11.069 A 1.183 1.183 0 0 1 44.345 11.2 Q 43.692 13.161 43.126 14.729 A 105.713 105.713 0 0 1 43.045 14.95 A 50.427 50.427 0 0 1 42.539 16.279 Q 42.305 16.871 42.031 17.526 A 101.064 101.064 0 0 1 41.445 18.9 A 53.072 53.072 0 0 1 39.554 23.025 Q 38.433 25.234 36.985 27.675 A 112.058 112.058 0 0 1 34.995 30.9 Q 30.645 37.7 23.445 44.75 A 75.577 75.577 0 0 1 14.808 51.973 A 102.429 102.429 0 0 1 5.545 57.9 Q 4.745 58.4 3.945 58.5 Q 3.226 58.59 2.507 58.033 A 3.484 3.484 0 0 1 2.345 57.9 Z M 154.245 52.8 L 149.145 53.1 Q 148.745 53.1 148.745 52.6 L 148.745 34.2 L 142.645 34.5 Q 140.245 34.6 137.345 34.8 Q 134.445 35 132.045 35.2 A 7.882 7.882 0 0 1 131.819 35.217 Q 131.081 35.263 130.798 35.121 A 0.391 0.391 0 0 1 130.695 35.05 A 1.18 1.18 0 0 1 130.544 34.86 Q 130.383 34.613 130.245 34.2 L 129.645 30.2 A 1.755 1.755 0 0 1 129.623 30.082 Q 129.512 29.347 130.274 29.486 A 1.865 1.865 0 0 1 130.345 29.5 Q 132.045 29.7 135.245 29.8 Q 137.379 29.867 139.712 29.867 A 174.054 174.054 0 0 0 142.095 29.85 Q 145.745 29.8 148.745 29.6 L 148.745 17.9 L 143.145 18.1 Q 140.745 18.2 137.845 18.4 Q 134.945 18.6 132.545 18.8 Q 131.572 18.889 131.225 18.742 A 0.48 0.48 0 0 1 131.145 18.7 A 0.63 0.63 0 0 1 130.964 18.505 Q 130.811 18.261 130.745 17.8 L 130.145 13.8 A 1.755 1.755 0 0 1 130.123 13.682 Q 130.012 12.947 130.774 13.086 A 1.865 1.865 0 0 1 130.845 13.1 Q 132.07 13.253 134.175 13.377 A 132.046 132.046 0 0 0 135.545 13.45 Q 138.645 13.6 142.245 13.5 A 187.185 187.185 0 0 0 145.664 13.375 Q 147.289 13.3 148.74 13.2 A 588.41 588.41 0 0 0 148.745 13.2 L 148.745 12.2 Q 148.745 8.4 148.495 5.2 A 38.845 38.845 0 0 0 148.374 3.905 Q 148.168 2.065 147.847 1.232 A 2.663 2.663 0 0 0 147.745 1 Q 147.604 0.648 147.687 0.419 A 0.457 0.457 0 0 1 147.795 0.25 A 0.842 0.842 0 0 1 148.301 0.009 A 1.157 1.157 0 0 1 148.445 0 L 151.395 0 Q 153.345 0 154.945 0.1 Q 155.423 0.1 155.444 0.829 A 2.391 2.391 0 0 1 155.445 0.9 Q 155.145 4.6 155.095 7.35 A 280.981 280.981 0 0 0 155.061 9.919 Q 155.045 11.675 155.045 13.7 L 155.045 50.6 A 23.71 23.71 0 0 1 155.04 51.12 Q 155.017 52.156 154.895 52.4 A 0.612 0.612 0 0 1 154.673 52.641 Q 154.507 52.748 154.245 52.8 Z M 153.345 91.3 L 148.745 91.5 A 0.453 0.453 0 0 1 148.57 91.469 Q 148.345 91.375 148.345 91 L 148.345 65.6 Q 148.345 64.9 148.195 64.7 Q 148.068 64.53 147.401 64.505 A 6.656 6.656 0 0 0 147.145 64.5 Q 144.845 64.5 140.745 64.6 Q 136.645 64.7 132.045 64.85 Q 127.445 65 123.395 65.15 Q 119.345 65.3 117.245 65.4 Q 114.745 65.6 111.795 65.8 Q 108.845 66 106.345 66.2 A 4.752 4.752 0 0 1 106.145 66.216 Q 105.394 66.259 105.102 66.007 A 0.537 0.537 0 0 1 105.045 65.95 A 2.757 2.757 0 0 1 104.711 65.457 A 3.515 3.515 0 0 1 104.545 65.1 A 0.451 0.451 0 0 1 104.494 65.039 Q 104.445 64.97 104.445 64.9 L 103.445 60.6 A 0.318 0.318 0 0 1 103.412 60.456 Q 103.412 60.347 103.478 60.216 A 1.086 1.086 0 0 1 103.545 60.1 Q 103.744 59.802 104.238 59.898 A 1.543 1.543 0 0 1 104.245 59.9 A 20.701 20.701 0 0 0 105.176 59.991 Q 106.477 60.093 108.669 60.161 A 187.596 187.596 0 0 0 110.095 60.2 Q 113.991 60.292 118.937 60.257 A 424.174 424.174 0 0 0 119.845 60.25 Q 125.345 60.2 130.945 60 A 285.909 285.909 0 0 0 136.231 59.765 Q 138.778 59.626 141.045 59.45 A 95.724 95.724 0 0 0 143.139 59.266 Q 146.045 58.975 147.545 58.6 Q 147.645 58.6 147.845 58.5 Q 148.045 58.5 148.245 58.45 Q 148.445 58.4 148.945 58.5 L 154.845 59.4 A 1.697 1.697 0 0 1 155.036 59.449 Q 155.23 59.512 155.321 59.609 A 0.287 0.287 0 0 1 155.395 59.75 A 2.842 2.842 0 0 1 155.43 59.959 Q 155.445 60.088 155.445 60.2 L 155.445 60.3 Q 155.145 63.1 154.995 66 Q 154.845 68.9 154.845 71.3 L 154.745 89.6 A 4.914 4.914 0 0 1 154.727 90.046 Q 154.659 90.782 154.347 90.973 A 0.445 0.445 0 0 1 154.295 91 Q 153.845 91.2 153.345 91.3 Z M 42.03 91.942 A 30.004 30.004 0 0 0 47.945 92.5 A 30.243 30.243 0 0 0 50.924 92.356 A 24.803 24.803 0 0 0 58.995 90.2 A 23.775 23.775 0 0 0 60.638 89.359 A 19.586 19.586 0 0 0 66.895 83.9 Q 69.845 79.9 69.945 74.7 Q 69.999 73.197 69.826 71.82 A 13.324 13.324 0 0 0 67.195 65.25 A 16.932 16.932 0 0 0 64.343 62.334 A 19.301 19.301 0 0 0 59.295 59.45 Q 54.345 57.5 48.345 57.5 A 29.161 29.161 0 0 0 47.52 57.512 A 25.09 25.09 0 0 0 37.445 59.85 A 24.644 24.644 0 0 0 35.605 60.81 A 20.224 20.224 0 0 0 29.445 66.2 Q 26.445 70.2 26.445 75.1 A 18.512 18.512 0 0 0 26.456 75.733 A 15.089 15.089 0 0 0 29.195 84.1 Q 31.945 88 36.795 90.25 A 23.289 23.289 0 0 0 42.03 91.942 Z M 48.145 87.3 A 21.635 21.635 0 0 0 53.433 86.509 A 16.755 16.755 0 0 0 58.795 83.9 A 10.877 10.877 0 0 0 63.182 76.435 A 15.846 15.846 0 0 0 63.345 74.6 Q 63.545 70.6 61.495 67.9 A 12.711 12.711 0 0 0 57.24 64.338 A 15.596 15.596 0 0 0 55.995 63.75 A 18.498 18.498 0 0 0 50.976 62.456 A 23.23 23.23 0 0 0 48.245 62.3 A 19.684 19.684 0 0 0 42.801 63.17 A 17.695 17.695 0 0 0 40.545 64.05 A 15.717 15.717 0 0 0 36.925 66.378 A 13.616 13.616 0 0 0 34.945 68.5 A 10.503 10.503 0 0 0 32.847 74.827 A 12.928 12.928 0 0 0 32.845 75 Q 32.845 78.8 34.895 81.55 A 12.802 12.802 0 0 0 39.083 85.139 A 15.81 15.81 0 0 0 40.445 85.8 A 18.699 18.699 0 0 0 46.341 87.228 A 22.318 22.318 0 0 0 48.145 87.3 Z" vector-effect="non-scaling-stroke"/></g></svg>