<svg width="163.533" height="85" viewBox="0 0 163.533 85" xmlns="http://www.w3.org/2000/svg"><g id="svgGroup" stroke-linecap="round" fill-rule="evenodd" font-size="9pt" stroke="#fffefd" stroke-width="0.25mm" fill="#fffefd" style="stroke:#fffefd;stroke-width:0.25mm;fill:#fffefd"><path d="M 157.233 84.5 L 157.233 40.6 A 417.833 417.833 0 0 0 151.655 40.638 A 458.625 458.625 0 0 0 150.833 40.65 A 113.734 113.734 0 0 0 148.485 40.709 Q 147.328 40.75 146.308 40.814 A 58.692 58.692 0 0 0 145.133 40.9 L 145.133 79.9 Q 145.133 81.3 144.983 81.65 A 0.68 0.68 0 0 1 144.671 81.984 Q 144.529 82.061 144.333 82.1 Q 143.843 82.182 142.519 82.263 A 83.971 83.971 0 0 1 141.883 82.3 A 205.338 205.338 0 0 1 141.237 82.334 Q 139.988 82.398 139.565 82.4 A 5.645 5.645 0 0 1 139.533 82.4 A 0.453 0.453 0 0 1 139.358 82.369 Q 139.133 82.275 139.133 81.9 L 139.133 14.8 Q 139.133 11 138.933 7.8 A 37.313 37.313 0 0 0 138.831 6.505 Q 138.624 4.381 138.233 3.6 Q 138.092 3.248 138.175 3.019 A 0.457 0.457 0 0 1 138.283 2.85 A 0.842 0.842 0 0 1 138.789 2.609 A 1.157 1.157 0 0 1 138.933 2.6 L 144.833 2.7 A 0.797 0.797 0 0 1 145.138 2.906 Q 145.271 3.055 145.313 3.276 A 1.186 1.186 0 0 1 145.333 3.5 A 91.715 91.715 0 0 0 145.19 6.087 Q 145.14 7.304 145.134 8.392 A 54.284 54.284 0 0 0 145.133 8.7 L 145.133 13.5 L 145.133 14.8 L 145.133 16.3 L 145.133 35.2 L 146.133 35.2 L 147.133 35.2 L 152.083 35.2 A 64.755 64.755 0 0 0 157.077 35.012 A 59.712 59.712 0 0 0 157.233 35 L 157.233 12.2 Q 157.233 8.4 157.083 5.2 A 35.911 35.911 0 0 0 157.001 3.905 Q 156.848 2.065 156.534 1.232 A 2.467 2.467 0 0 0 156.433 1 Q 156.292 0.648 156.375 0.419 A 0.457 0.457 0 0 1 156.483 0.25 A 0.842 0.842 0 0 1 156.989 0.009 A 1.157 1.157 0 0 1 157.133 0 L 163.033 0.1 A 0.797 0.797 0 0 1 163.338 0.306 Q 163.471 0.455 163.513 0.676 A 1.186 1.186 0 0 1 163.533 0.9 A 141.597 141.597 0 0 0 163.375 3.665 Q 163.309 5.063 163.283 6.3 Q 163.233 8.7 163.233 11.3 L 163.233 12.5 L 163.233 13.7 L 163.233 82.5 A 23.71 23.71 0 0 1 163.228 83.02 Q 163.205 84.056 163.083 84.3 A 0.612 0.612 0 0 1 162.861 84.541 Q 162.695 84.648 162.433 84.7 A 7.352 7.352 0 0 0 162.266 84.702 Q 161.904 84.711 161.083 84.75 Q 160.033 84.8 159.033 84.9 A 40.115 40.115 0 0 1 158.574 84.943 Q 157.934 85 157.633 85 A 0.453 0.453 0 0 1 157.458 84.969 Q 157.233 84.875 157.233 84.5 Z M 39.133 68.6 L 39.133 58.1 A 87.447 87.447 0 0 0 39.091 55.316 Q 39.021 53.113 38.833 51.3 A 45.469 45.469 0 0 0 38.687 50.045 Q 38.458 48.302 38.178 47.517 A 3.313 3.313 0 0 0 38.133 47.4 A 1.889 1.889 0 0 1 38.075 47.233 Q 37.832 46.409 38.812 46.4 A 2.371 2.371 0 0 1 38.833 46.4 L 44.833 46.4 A 0.63 0.63 0 0 1 45.11 46.456 Q 45.433 46.613 45.433 47.2 L 45.433 47.4 Q 45.233 50 45.183 52.4 Q 45.133 54.8 45.033 57.4 L 44.733 68.5 Q 52.433 68.3 59.483 67.95 A 381.478 381.478 0 0 0 65.763 67.589 Q 69.135 67.366 72.083 67.1 Q 76.658 66.688 79.568 66.276 A 61.475 61.475 0 0 0 80.733 66.1 A 5.084 5.084 0 0 1 80.972 66.058 Q 81.566 65.968 81.864 66.091 A 0.511 0.511 0 0 1 82.033 66.2 A 1.374 1.374 0 0 1 82.335 66.666 A 1.887 1.887 0 0 1 82.433 67 L 83.033 71.8 Q 83.033 72.3 82.733 72.7 Q 82.454 73.073 81.304 73.098 A 7.81 7.81 0 0 1 81.133 73.1 A 214.379 214.379 0 0 0 77.948 73.032 Q 76.31 73.008 74.477 73.002 A 384.435 384.435 0 0 0 73.233 73 L 63.633 73 A 1147.841 1147.841 0 0 0 42.371 73.191 A 1038.908 1038.908 0 0 0 39.433 73.25 Q 27.733 73.5 18.433 73.9 Q 10.114 74.258 4.756 74.776 A 118.326 118.326 0 0 0 3.533 74.9 A 6.468 6.468 0 0 1 3.285 74.918 Q 2.386 74.965 2.033 74.7 A 1.536 1.536 0 0 1 1.647 74.268 Q 1.537 74.088 1.456 73.865 A 2.731 2.731 0 0 1 1.433 73.8 Q 1.033 72.7 0.733 71.55 Q 0.434 70.402 0.035 68.705 A 47.783 47.783 0 0 1 0.033 68.7 A 0.32 0.32 0 0 1 0.001 68.581 Q -0.012 68.414 0.119 68.175 A 1.682 1.682 0 0 1 0.133 68.15 A 0.523 0.523 0 0 1 0.332 67.947 Q 0.493 67.857 0.732 67.884 A 1.21 1.21 0 0 1 0.833 67.9 A 56.534 56.534 0 0 0 3.482 68.178 Q 6.244 68.409 9.983 68.518 A 198.095 198.095 0 0 0 11.233 68.55 Q 17.833 68.7 25.733 68.7 L 32.283 68.7 Q 35.633 68.7 39.133 68.6 Z M 9.333 47.2 L 6.833 44.7 A 0.645 0.645 0 0 1 6.754 44.605 Q 6.517 44.252 7.133 43.9 L 7.333 43.7 Q 14.533 40.4 20.633 35.7 Q 26.733 31 31.233 25.75 A 61.293 61.293 0 0 0 34.285 21.904 Q 35.812 19.802 36.934 17.814 A 31.886 31.886 0 0 0 37.933 15.9 Q 38.733 14.6 39.583 12.35 Q 40.433 10.1 41.133 7.75 Q 41.618 6.123 41.815 4.855 A 11.613 11.613 0 0 0 41.933 3.8 A 1.331 1.331 0 0 1 41.974 3.455 Q 42.163 2.753 43.233 3 L 50.033 5.4 A 1.835 1.835 0 0 1 50.284 5.521 Q 50.948 5.913 50.433 6.6 Q 49.433 8.6 47.633 12.15 A 169.522 169.522 0 0 1 46.326 14.679 Q 45.271 16.675 44.333 18.3 L 43.233 20.2 Q 49.033 23 55.183 26.15 A 286.341 286.341 0 0 1 62.539 30.048 A 238.166 238.166 0 0 1 66.633 32.35 A 128.127 128.127 0 0 1 70.029 34.37 Q 71.531 35.298 72.807 36.155 A 55.207 55.207 0 0 1 75.133 37.8 Q 75.633 38.2 76.133 38.8 A 1.12 1.12 0 0 1 76.316 39.1 Q 76.513 39.592 76.133 40.2 Q 75.533 41.3 74.483 42.55 Q 73.433 43.8 72.333 44.9 A 1.243 1.243 0 0 1 72.161 45.045 Q 71.647 45.4 71.133 44.8 Q 68.833 42.4 65.133 39.5 A 123.2 123.2 0 0 0 59.739 35.513 A 144.401 144.401 0 0 0 57.083 33.7 Q 52.733 30.8 48.433 28.25 A 104.324 104.324 0 0 0 44.824 26.201 Q 42.602 25 40.633 24.1 A 60.617 60.617 0 0 1 36.617 29.183 Q 34.431 31.68 31.764 34.266 A 107.649 107.649 0 0 1 29.933 36 Q 24.19 41.315 15.435 46.262 A 119.244 119.244 0 0 1 12.433 47.9 A 2.113 2.113 0 0 1 11.782 48.098 Q 11.46 48.144 11.089 48.111 A 3.855 3.855 0 0 1 10.983 48.1 Q 10.22 48.01 9.498 47.357 A 4.536 4.536 0 0 1 9.333 47.2 Z M 93.633 67.5 L 91.233 65.5 L 91.033 65.3 A 0.469 0.469 0 0 1 91.087 65.094 Q 91.166 64.931 91.366 64.744 A 2.863 2.863 0 0 1 91.533 64.6 Q 98.933 59.7 104.833 53.5 A 91.132 91.132 0 0 0 112.142 44.833 A 78.535 78.535 0 0 0 114.933 40.8 Q 119.133 34.3 121.483 28.3 Q 123.833 22.3 124.033 17.7 Q 124.033 16.714 123.31 16.612 A 1.265 1.265 0 0 0 123.133 16.6 Q 120.333 16.7 117.133 16.85 Q 113.933 17 109.383 17.35 Q 104.833 17.7 97.933 18.4 A 5.585 5.585 0 0 1 97.752 18.415 Q 96.91 18.472 96.683 18.2 Q 96.433 17.9 96.233 17.4 A 1.769 1.769 0 0 1 96.19 17.306 Q 96.151 17.215 96.139 17.152 A 0.282 0.282 0 0 1 96.133 17.1 A 35.562 35.562 0 0 1 95.949 16.581 Q 95.755 16.021 95.644 15.626 A 7.886 7.886 0 0 1 95.583 15.4 Q 95.433 14.8 94.933 13.2 A 1.005 1.005 0 0 1 94.925 13.115 Q 94.895 12.593 95.499 12.514 A 1.82 1.82 0 0 1 95.733 12.5 Q 102.233 13 108.383 12.85 Q 114.533 12.7 120.933 11.8 Q 122.133 11.6 123.333 11.3 L 124.533 11 Q 125.033 10.8 125.633 11 Q 126.707 11.268 128.34 11.617 A 153.499 153.499 0 0 0 128.733 11.7 Q 130.483 12.068 131.3 12.267 A 21.831 21.831 0 0 1 131.433 12.3 A 1.456 1.456 0 0 1 131.822 12.574 Q 132.204 12.961 132.133 13.6 L 130.533 20.1 Q 129.433 23.9 127.333 29.1 Q 125.39 33.912 122.034 39.536 A 110.594 110.594 0 0 1 121.483 40.45 A 79.546 79.546 0 0 1 117.323 46.572 Q 114.827 49.918 111.733 53.45 Q 105.733 60.3 96.733 67.5 A 3.338 3.338 0 0 1 95.675 68.012 A 3.122 3.122 0 0 1 95.233 68.1 Q 94.514 68.19 93.795 67.633 A 3.484 3.484 0 0 1 93.633 67.5 Z" vector-effect="non-scaling-stroke"/></g></svg>