<svg width="551.5" height="86.215" viewBox="0 0 551.5 86.215" xmlns="http://www.w3.org/2000/svg"><g id="svgGroup" stroke-linecap="round" fill-rule="evenodd" font-size="9pt" stroke="#000" stroke-width="0.25mm" fill="#000" style="stroke:#000;stroke-width:0.25mm;fill:#000"><path d="M 354.3 60.001 L 369.8 14.801 L 365.7 2.201 Q 365.5 1.501 366.1 1.501 L 371.8 1.501 Q 372.369 1.501 372.488 1.95 A 0.833 0.833 0 0 1 372.5 2.001 L 390.8 59.601 L 407.6 2.001 A 0.651 0.651 0 0 1 407.707 1.743 Q 407.874 1.513 408.26 1.501 A 1.38 1.38 0 0 1 408.3 1.501 L 414 1.501 A 1.024 1.024 0 0 1 414.179 1.515 Q 414.65 1.599 414.408 2.183 A 1.756 1.756 0 0 1 414.4 2.201 L 393.6 70.501 A 0.651 0.651 0 0 1 393.493 70.759 Q 393.326 70.989 392.94 71 A 1.38 1.38 0 0 1 392.9 71.001 L 388.6 71.001 Q 388.031 71.001 387.912 70.552 A 0.833 0.833 0 0 1 387.9 70.501 L 372.9 24.301 L 356.8 70.501 A 0.651 0.651 0 0 1 356.693 70.759 Q 356.526 70.989 356.14 71 A 1.38 1.38 0 0 1 356.1 71.001 L 351.8 71.001 Q 351.231 71.001 351.112 70.552 A 0.833 0.833 0 0 1 351.1 70.501 L 329.5 2.201 Q 329.3 1.501 329.9 1.501 L 335.7 1.501 Q 336.269 1.501 336.388 1.95 A 0.833 0.833 0 0 1 336.4 2.001 L 354.3 60.001 Z M 502 70.401 L 502 2.101 A 0.864 0.864 0 0 1 502.03 1.863 Q 502.134 1.501 502.6 1.501 L 506.8 1.501 Q 507.064 1.501 507.404 1.809 A 2.688 2.688 0 0 1 507.5 1.901 L 545.8 59.801 L 545.3 48.301 L 545 2.101 A 0.864 0.864 0 0 1 545.03 1.863 Q 545.134 1.501 545.6 1.501 L 550.9 1.501 A 0.864 0.864 0 0 1 551.138 1.531 Q 551.5 1.634 551.5 2.101 L 551.5 70.401 A 0.864 0.864 0 0 1 551.47 70.638 Q 551.366 71.001 550.9 71.001 L 546.7 71.001 Q 546.437 71.001 546.096 70.692 A 2.688 2.688 0 0 1 546 70.601 L 507.7 13.001 L 508.2 24.501 L 508.5 70.401 A 0.864 0.864 0 0 1 508.47 70.638 Q 508.366 71.001 507.9 71.001 L 502.6 71.001 A 0.864 0.864 0 0 1 502.363 70.971 Q 502 70.867 502 70.401 Z M 69 70.401 L 69 2.101 A 0.864 0.864 0 0 1 69.03 1.863 Q 69.134 1.501 69.6 1.501 L 105.4 1.501 A 0.864 0.864 0 0 1 105.638 1.531 Q 106 1.634 106 2.101 L 106 6.501 A 0.864 0.864 0 0 1 105.97 6.738 Q 105.866 7.101 105.4 7.101 L 75.5 7.101 L 75.5 30.701 L 100.9 30.701 A 0.864 0.864 0 0 1 101.138 30.731 Q 101.5 30.834 101.5 31.301 L 101.5 35.701 A 0.864 0.864 0 0 1 101.47 35.938 Q 101.366 36.301 100.9 36.301 L 75.5 36.301 L 75.5 65.301 L 92.7 65.301 Q 98.2 65.301 102.2 64.701 Q 105.079 64.269 107.233 63.785 A 38.457 38.457 0 0 0 108.8 63.401 Q 109.337 63.311 109.474 63.702 A 0.737 0.737 0 0 1 109.5 63.801 L 110.5 68.301 A 0.775 0.775 0 0 1 110.534 68.405 Q 110.623 68.77 110.225 68.952 A 1.244 1.244 0 0 1 110.1 69.001 A 30.675 30.675 0 0 1 105.823 70.055 Q 101.281 70.868 94.854 70.982 A 121.235 121.235 0 0 1 92.7 71.001 L 69.6 71.001 A 0.864 0.864 0 0 1 69.363 70.971 Q 69 70.867 69 70.401 Z M 281 70.401 L 281 2.101 A 0.864 0.864 0 0 1 281.03 1.863 Q 281.134 1.501 281.6 1.501 L 317.4 1.501 A 0.864 0.864 0 0 1 317.638 1.531 Q 318 1.634 318 2.101 L 318 6.501 A 0.864 0.864 0 0 1 317.97 6.738 Q 317.866 7.101 317.4 7.101 L 287.5 7.101 L 287.5 30.701 L 312.9 30.701 A 0.864 0.864 0 0 1 313.138 30.731 Q 313.5 30.834 313.5 31.301 L 313.5 35.701 A 0.864 0.864 0 0 1 313.47 35.938 Q 313.366 36.301 312.9 36.301 L 287.5 36.301 L 287.5 65.301 L 304.7 65.301 Q 310.2 65.301 314.2 64.701 Q 317.079 64.269 319.233 63.785 A 38.457 38.457 0 0 0 320.8 63.401 Q 321.337 63.311 321.474 63.702 A 0.737 0.737 0 0 1 321.5 63.801 L 322.5 68.301 A 0.775 0.775 0 0 1 322.534 68.405 Q 322.623 68.77 322.225 68.952 A 1.244 1.244 0 0 1 322.1 69.001 A 30.675 30.675 0 0 1 317.823 70.055 Q 313.281 70.868 306.854 70.982 A 121.235 121.235 0 0 1 304.7 71.001 L 281.6 71.001 A 0.864 0.864 0 0 1 281.363 70.971 Q 281 70.867 281 70.401 Z M 124.4 2.001 L 142.9 52.801 L 145.5 61.601 L 148.2 52.801 L 166.5 2.001 A 0.651 0.651 0 0 1 166.607 1.743 Q 166.774 1.513 167.16 1.501 A 1.38 1.38 0 0 1 167.2 1.501 L 173 1.501 A 1.024 1.024 0 0 1 173.179 1.515 Q 173.65 1.599 173.408 2.183 A 1.756 1.756 0 0 1 173.4 2.201 L 148.3 70.501 A 0.954 0.954 0 0 1 148.157 70.751 Q 147.965 70.987 147.638 71 A 0.966 0.966 0 0 1 147.6 71.001 L 143.3 71.001 Q 142.731 71.001 142.612 70.552 A 0.833 0.833 0 0 1 142.6 70.501 L 117.5 2.201 Q 117.3 1.501 117.9 1.501 L 123.7 1.501 Q 124.269 1.501 124.388 1.95 A 0.833 0.833 0 0 1 124.4 2.001 Z M 261.1 70.501 L 252.7 48.701 L 224.3 48.701 L 216 70.501 A 0.651 0.651 0 0 1 215.893 70.759 Q 215.726 70.989 215.34 71 A 1.38 1.38 0 0 1 215.3 71.001 L 209.5 71.001 A 1.024 1.024 0 0 1 209.321 70.987 Q 208.85 70.903 209.092 70.319 A 1.756 1.756 0 0 1 209.1 70.301 L 235.7 2.001 A 1.537 1.537 0 0 1 235.864 1.773 Q 235.965 1.658 236.077 1.592 A 0.62 0.62 0 0 1 236.4 1.501 L 240.7 1.501 Q 241.269 1.501 241.388 1.95 A 0.833 0.833 0 0 1 241.4 2.001 L 268 70.301 Q 268.2 71.001 267.6 71.001 L 261.8 71.001 Q 261.231 71.001 261.112 70.552 A 0.833 0.833 0 0 1 261.1 70.501 Z M 443.232 71.278 A 35.339 35.339 0 0 0 452.7 72.501 A 41.672 41.672 0 0 0 458.307 72.134 A 32.374 32.374 0 0 0 470.7 67.901 Q 478.4 63.301 482.7 55.151 A 35.837 35.837 0 0 0 485.991 46.042 A 45.959 45.959 0 0 0 487 36.201 A 51.823 51.823 0 0 0 486.314 27.58 A 38.169 38.169 0 0 0 483 17.051 A 35.212 35.212 0 0 0 482.747 16.545 A 29.459 29.459 0 0 0 471.65 4.451 Q 464.3 0.001 454.4 0.001 A 42.217 42.217 0 0 0 449.154 0.318 A 33.232 33.232 0 0 0 436.45 4.501 Q 428.7 9.001 424.35 17.151 A 35.625 35.625 0 0 0 420.956 26.586 A 46.268 46.268 0 0 0 420 36.201 A 50.324 50.324 0 0 0 420.49 43.338 A 38.799 38.799 0 0 0 424.05 55.101 Q 428.1 63.301 435.5 67.901 A 29.46 29.46 0 0 0 443.232 71.278 Z M 0 70.401 L 0 2.101 A 0.864 0.864 0 0 1 0.03 1.863 Q 0.134 1.501 0.6 1.501 L 16.3 1.501 Q 28.838 1.501 37.241 5.524 A 28.358 28.358 0 0 1 44.5 10.451 Q 53.948 19.352 54 35.524 A 55.715 55.715 0 0 1 54 35.701 Q 54 46.901 49.35 54.801 Q 44.7 62.701 36.4 66.851 A 38.717 38.717 0 0 1 24.97 70.417 A 51.098 51.098 0 0 1 17.1 71.001 L 0.6 71.001 A 0.864 0.864 0 0 1 0.363 70.971 Q 0 70.867 0 70.401 Z M 189.5 59.601 L 189.5 1.501 L 196 1.501 L 196 60.101 A 59.623 59.623 0 0 1 195.782 65.341 Q 195.419 69.451 194.45 72.701 A 19.64 19.64 0 0 1 192.307 77.532 A 16.332 16.332 0 0 1 189.3 81.101 A 17.809 17.809 0 0 1 184.019 84.303 Q 181.705 85.233 178.888 85.76 A 37.657 37.657 0 0 1 175.8 86.201 Q 175.337 86.293 175.131 85.785 A 1.432 1.432 0 0 1 175.1 85.701 L 174 80.901 Q 173.907 80.437 174.416 80.232 A 1.432 1.432 0 0 1 174.5 80.201 Q 182.5 79.501 185.9 75.601 A 12.083 12.083 0 0 0 187.835 72.33 Q 188.422 70.879 188.75 69.151 A 38.539 38.539 0 0 0 189.236 65.669 Q 189.401 63.955 189.463 62.013 A 75.674 75.674 0 0 0 189.5 59.601 Z M 452.7 66.901 A 31.579 31.579 0 0 0 460.291 66.026 A 24.975 24.975 0 0 0 467.45 63.051 Q 473.7 59.201 477.1 52.301 A 32.413 32.413 0 0 0 479.981 43.037 A 43.262 43.262 0 0 0 480.5 36.201 A 47.317 47.317 0 0 0 479.909 28.526 Q 479.199 24.204 477.633 20.591 A 28.759 28.759 0 0 0 477.3 19.851 A 26.047 26.047 0 0 0 472.862 13.141 A 22.954 22.954 0 0 0 468.25 9.301 A 23.708 23.708 0 0 0 458.961 5.927 A 30.885 30.885 0 0 0 454.4 5.601 A 32.465 32.465 0 0 0 446.926 6.425 A 25.376 25.376 0 0 0 439.65 9.351 A 25.315 25.315 0 0 0 430.004 19.844 A 30.146 30.146 0 0 0 429.95 19.951 A 31.285 31.285 0 0 0 427.16 28.464 A 43.156 43.156 0 0 0 426.5 36.201 A 44.024 44.024 0 0 0 427.214 44.32 A 32.863 32.863 0 0 0 429.75 52.301 A 26.871 26.871 0 0 0 434.657 59.538 A 24.208 24.208 0 0 0 438.9 63.051 A 23.67 23.67 0 0 0 449.34 66.717 A 29.955 29.955 0 0 0 452.7 66.901 Z M 6.5 7.101 L 6.5 65.301 L 17.1 65.301 A 43.055 43.055 0 0 0 25.063 64.599 A 32.068 32.068 0 0 0 33 62.051 Q 39.8 58.801 43.65 52.201 Q 47.244 46.039 47.483 37.089 A 48.298 48.298 0 0 0 47.5 35.801 A 41.805 41.805 0 0 0 46.731 27.514 Q 45.736 22.598 43.454 18.822 A 22.089 22.089 0 0 0 40 14.451 A 22.649 22.649 0 0 0 31.861 9.459 Q 28.294 8.142 23.857 7.56 A 58.29 58.29 0 0 0 16.3 7.101 L 6.5 7.101 Z M 250.5 43.001 L 241.6 19.701 L 238.5 10.501 L 235.3 19.701 L 226.4 43.001 L 250.5 43.001 Z" vector-effect="non-scaling-stroke"/></g></svg>