<svg width="34" height="28" viewBox="0 0 34 28" fill="none" xmlns="http://www.w3.org/2000/svg">
<g clip-path="url(#clip0_102_9)">
<path d="M33.6666 2.33335V9.00002L16.9999 15.6667L0.333252 9.00002V2.33335C0.333252 1.89133 0.508847 1.4674 0.821407 1.15484C1.13397 0.842282 1.55789 0.666687 1.99992 0.666687H31.9999C32.4419 0.666687 32.8659 0.842282 33.1784 1.15484C33.491 1.4674 33.6666 1.89133 33.6666 2.33335ZM0.333252 12.59V25.6667C0.333252 26.1087 0.508847 26.5326 0.821407 26.8452C1.13397 27.1578 1.55789 27.3334 1.99992 27.3334H31.9999C32.4419 27.3334 32.8659 27.1578 33.1784 26.8452C33.491 26.5326 33.6666 26.1087 33.6666 25.6667V12.59L16.9999 19.2567L0.333252 12.59Z" fill="#BBBCBD"/>
</g>
<defs>
<clipPath id="clip0_102_9">
<rect width="34" height="28" fill="white"/>
</clipPath>
</defs>
</svg>
