<svg width="38" height="38" viewBox="0 0 38 38" fill="none" xmlns="http://www.w3.org/2000/svg">
<g clip-path="url(#clip0_102_7)">
<path d="M18.9999 0.718779C8.64738 0.718779 0.254883 9.11128 0.254883 19.4638C0.254883 27.695 5.56113 34.6888 12.9399 37.2075L13.0724 37.2463C14.0099 37.4225 14.3536 36.8438 14.3536 36.345C14.3536 35.9 14.3386 34.72 14.3299 33.1588C9.11613 34.29 8.01613 30.6438 8.01613 30.6438C7.65613 29.4875 6.91863 28.5375 5.94988 27.9138L5.92988 27.9025C4.23238 26.74 6.06113 26.7638 6.06113 26.7638C7.29488 26.9375 8.32863 27.6613 8.92238 28.6763L8.93238 28.695C9.62488 29.9388 10.9324 30.7663 12.4336 30.7663C13.1536 30.7663 13.8286 30.5763 14.4111 30.2425L14.3911 30.2525C14.4811 29.2638 14.9174 28.3913 15.5774 27.7463L15.5786 27.745C11.4161 27.2763 7.03988 25.6638 7.03988 18.4825C7.03988 18.4488 7.03863 18.41 7.03863 18.3713C7.03863 16.47 7.77238 14.74 8.97238 13.4488L8.96863 13.4538C8.71488 12.7763 8.56738 11.9938 8.56738 11.1775C8.56738 10.2063 8.77488 9.28253 9.14863 8.45003L9.13113 8.49253C9.13113 8.49253 10.7011 7.99003 14.2861 10.4138C15.6911 10.0125 17.3049 9.78128 18.9724 9.78128C20.6399 9.78128 22.2536 10.0125 23.7836 10.4438L23.6586 10.4138C27.2199 7.99003 28.7899 8.49253 28.7899 8.49253C29.1461 9.29503 29.3536 10.23 29.3536 11.2138C29.3536 12.0163 29.2161 12.7863 28.9624 13.5013L28.9774 13.4538C30.1686 14.7438 30.8999 16.4738 30.8999 18.375C30.8999 18.4138 30.8999 18.4513 30.8986 18.4888V18.4825C30.8986 25.6838 26.5174 27.2688 22.3461 27.73C23.1361 28.5388 23.6236 29.645 23.6236 30.8663C23.6236 30.9825 23.6186 31.0988 23.6099 31.2138L23.6111 31.1988C23.6111 33.7075 23.5874 35.7225 23.5874 36.3313C23.5874 36.8238 23.9149 37.4088 24.8761 37.2213C32.4111 34.685 37.7411 27.685 37.7411 19.4388C37.7411 9.09878 29.3586 0.717529 19.0199 0.717529C19.0124 0.717529 19.0036 0.717529 18.9961 0.717529H18.9974L18.9999 0.718779Z" fill="#BBBCBD"/>
</g>
<defs>
<clipPath id="clip0_102_7">
<rect width="38" height="38" fill="white"/>
</clipPath>
</defs>
</svg>
