<svg width="28" height="20" viewBox="0 0 28 20" fill="none" xmlns="http://www.w3.org/2000/svg">
<g clip-path="url(#clip0_24_2)">
<path d="M26.7833 3.56669C26.6352 2.99549 26.338 2.47387 25.9222 2.05514C25.5063 1.6364 24.9868 1.33555 24.4167 1.18334C20.96 0.775652 17.4805 0.591936 14 0.633336C10.5196 0.591936 7.0401 0.775652 3.58336 1.18334C3.01323 1.33555 2.49371 1.6364 2.07791 2.05514C1.6621 2.47387 1.36491 2.99549 1.2167 3.56669C0.838046 5.68992 0.653946 7.84332 0.666696 9.99999C0.653313 12.1678 0.837413 14.3323 1.2167 16.4667C1.3726 17.0287 1.6732 17.5398 2.0885 17.9493C2.50378 18.3588 3.01923 18.6522 3.58336 18.8C7.0401 19.2077 10.5196 19.3915 14 19.35C17.4805 19.3915 20.96 19.2077 24.4167 18.8C24.9808 18.6522 25.4963 18.3588 25.9115 17.9493C26.3268 17.5398 26.6275 17.0287 26.7833 16.4667C27.1627 14.3323 27.3467 12.1678 27.3333 9.99999C27.3462 7.84332 27.162 5.68992 26.7833 3.56669ZM11.2667 13.9833V6.05L18.25 9.99999L11.2667 13.9667V13.9833Z" fill="#EAEAEA"/>
</g>
<defs>
<clipPath id="clip0_24_2">
<rect width="28" height="20" fill="white"/>
</clipPath>
</defs>
</svg>
